<?xml version="1.0" encoding="UTF-8" standalone="no"?>
<svg
   preserveAspectRatio="xMidYMid meet"
   viewBox="0 0 458.3 136.7"
   style="max-width: 300px;"
   width="100%"
   class="s-y_bCXRrkrYfP"
   version="1.1"
   id="svg20"
   sodipodi:docname="actions.svg"
   inkscape:version="1.2.2 (b0a8486541, 2022-12-01)"
   xmlns:inkscape="http://www.inkscape.org/namespaces/inkscape"
   xmlns:sodipodi="http://sodipodi.sourceforge.net/DTD/sodipodi-0.dtd"
   xmlns="http://www.w3.org/2000/svg"
   xmlns:svg="http://www.w3.org/2000/svg">
  <defs
     id="defs24" />
  <sodipodi:namedview
     id="namedview22"
     pagecolor="#ffffff"
     bordercolor="#666666"
     borderopacity="1.0"
     inkscape:showpageshadow="2"
     inkscape:pageopacity="0.0"
     inkscape:pagecheckerboard="0"
     inkscape:deskcolor="#d1d1d1"
     showgrid="false"
     inkscape:zoom="1.7264082"
     inkscape:cx="229.37796"
     inkscape:cy="68.639617"
     inkscape:window-width="1920"
     inkscape:window-height="1011"
     inkscape:window-x="0"
     inkscape:window-y="0"
     inkscape:window-maximized="1"
     inkscape:current-layer="svg20" />
  <circle
     style="fill: none; fill-opacity: 0.110092; stroke: rgb(0, 0, 0); stroke-width: 3.4px; stroke-linecap: round; stroke-linejoin: round; stroke-miterlimit: 4; stroke-dasharray: none; stroke-opacity: 0.293578; pointer-events: all;"
     cx="391.512"
     cy="69.803"
     r="48.86"
     class="s-y_bCXRrkrYfP"
     id="circle2" />
  <circle
     style="fill: none; fill-opacity: 0.110092; stroke: rgb(0, 0, 0); stroke-width: 3.4px; stroke-linecap: round; stroke-linejoin: round; stroke-miterlimit: 4; stroke-dasharray: none; stroke-opacity: 0.293578; pointer-events: all;"
     cx="230.301"
     cy="69.803"
     r="48.86"
     class="s-y_bCXRrkrYfP"
     id="circle4" />
  <circle
     style="fill: none; fill-opacity: 0.110092; stroke: rgb(0, 0, 0); stroke-width: 3.4px; stroke-linecap: round; stroke-linejoin: round; stroke-miterlimit: 4; stroke-dasharray: none; stroke-opacity: 0.293578; pointer-events: all;"
     cx="69.445"
     cy="69.803"
     r="48.86"
     class="s-y_bCXRrkrYfP"
     id="circle6" />
  <path
     style="fill: rgb(255, 255, 255); stroke: rgb(108, 142, 191); stroke-width: 3px;"
     d="M116.004 67.998c0 26.5-21.5 48-48 48s-48-21.5-48-48 21.5-48 48-48 48 21.5 48 48zm322.3 0c0 26.5-21.5 48-48 48s-48-21.5-48-48 21.5-48 48-48 48 21.5 48 48zm-161.15 0c0 26.5-21.5 48-48 48s-48-21.5-48-48 21.5-48 48-48 48 21.5 48 48z"
     class="s-y_bCXRrkrYfP"
     id="path8" />
  <path
     style="fill: rgb(84, 196, 94); stroke: rgb(0, 0, 0); stroke-width: 0.29px; stroke-opacity: 0; pointer-events: all;"
     d="M386.804 40.098c3.88 0 7 3.14 7 7v20.9h1.7c5.34 0 9.6 4.3 9.6 9.6v3.45c0 1.45 1.2 2.63 2.64 2.63 1.45 0 2.58-1.18 2.58-2.63v-13.45c-3.52-1.1-6.1-4.4-6.1-8.3v-3.5c0-.96.83-1.74 1.77-1.74h1.74v-5.26c0-.93.76-1.7 1.76-1.7.94 0 1.7.77 1.7 1.7v5.26h3.5v-5.26c0-.93.76-1.7 1.77-1.7.94 0 1.7.77 1.7 1.7v5.26h1.75c1 0 1.75.78 1.75 1.73v3.5c0 3.9-2.57 7.2-6.08 8.3v13.45c0 4.35-3.53 7.87-7.86 7.87s-7.84-3.52-7.84-7.87v-3.45c0-2.4-1.94-4.36-4.4-4.36h-1.7v15.68c1.9 0 3.47 1.56 3.47 3.5 0 1.9-1.57 3.47-3.46 3.47h-31.36c-1.95 0-3.5-1.57-3.5-3.47 0-1.95 1.55-3.5 3.5-3.5v-41.84c0-3.86 3.07-7 6.96-7h17.4zm-6.35 9.16-12.18 10.43c-.56.5-.75 1.27-.5 1.94.25.67.88 1.12 1.5 1.12h6.4l-2.7 8.2c-.24.72 0 1.56.7 1.95.63.46 1.38.4 2.07-.1l12.18-10.43c.56-.5.75-1.28.5-1.95-.25-.67-.88-1.12-1.63-1.12h-6.3l2.7-8.2c.26-.72 0-1.56-.62-1.95-.75-.45-1.57-.4-2.13.1z"
     class="s-y_bCXRrkrYfP"
     id="path10" />
  <path
     style="fill: rgb(0, 194, 168); stroke: rgb(0, 0, 0); stroke-width: 0.29px; stroke-opacity: 0; fill-opacity: 0.298165; opacity: 0;"
     d="M249.464 65.505c-2.497-2.566-5.2-4.568-8.025-5.893l12.289-9.784c1.065-.856.994-2.42-.005-3.26-8.062-6.318-19.748-6.01-27.23 1.272-2.508 2.441-4.49 5.18-5.864 7.969l-9.672-12.188c-.812-1.122-2.419-.995-3.267-.002-6.421 7.883-5.936 19.593 1.269 26.996 2.497 2.565 5.192 4.574 8.031 5.9l-12.302 9.783c-1.059.863-.98 2.434.012 3.282 8.004 6.36 19.571 6 27.045-1.275 2.558-2.49 4.49-5.18 5.864-7.969l9.77 12.289c.848 1.072 2.42.994 3.26-.006 6.374-8.018 6.03-19.684-1.175-27.086zm-23.239 5.286c-1.534-1.576-1.407-4.17.17-5.704 1.59-1.549 4.22-1.457 5.663.027 1.493 1.533 1.465 4.114-.126 5.663-1.576 1.534-4.082 1.684-5.714.007z"
     class="s-y_bCXRrkrYfP"
     id="path12" />
  <path
     style="fill: rgb(0, 194, 168); stroke: rgb(255, 255, 255); stroke-width: 1px; stroke-opacity: 1; stroke-miterlimit: 4; stroke-dasharray: none; pointer-events: all;"
     d="M241.444 51.698c-3.58 0-6.9.54-9.82 1.64l1.56-15.63c.13-1.36-1.04-2.4-2.34-2.27-10.15 1.37-18.08 9.96-18.08 20.4 0 3.5.58 6.83 1.62 9.76l-15.48-1.57c-1.37-.2-2.4 1.04-2.28 2.34 1.17 10.1 9.9 17.92 20.23 17.92 3.58 0 6.9-.53 9.83-1.64l-1.57 15.64c-.12 1.36 1.06 2.4 2.36 2.28 10.14-1.3 17.95-9.84 17.95-20.27 0-3.57-.58-6.83-1.62-9.76l15.62 1.57c1.36.14 2.4-1.04 2.27-2.34-1.3-10.16-9.9-18.05-20.23-18.05zm-12.42 20.34c-2.2 0-3.97-1.9-3.97-4.1 0-2.22 1.9-4.04 3.97-4.04 2.14 0 3.97 1.82 3.97 4.04 0 2.2-1.64 4.1-3.98 4.1z"
     class="s-y_bCXRrkrYfP"
     id="path14" />
  <path
     style="fill: rgb(109, 177, 255); stroke: rgb(0, 0, 0); stroke-width: 0.29px; stroke-opacity: 0; pointer-events: all;"
     d="M35.474 84.798v-32.23c0-2.64 1.62-5.02 4.1-6l27.2-10.94c.77-.25 1.68-.25 2.46 0l27.2 10.93c2.47 1 4.1 3.37 4.1 6v32.24c0 1.34-1.1 2.42-2.48 2.42h-4.8c-1.38 0-2.48-1.08-2.48-2.43v-26.94c0-1.7-1.43-3.27-3.26-3.27h-39.01c-1.82 0-3.26 1.55-3.26 3.26v26.96c0 1.34-1.1 2.42-2.47 2.42h-4.88c-1.3 0-2.4-1.08-2.4-2.43zm15.48 2.42c-1.37 0-2.47-1.08-2.47-2.43v-5.7h39.03v5.7c0 1.34-1.1 2.42-2.4 2.42h-34.15zm-2.47-17.87h39.03v6.48h-39.01v-6.48zm0-11.4h39.03v8.14h-39.01v-8.14z"
     class="s-y_bCXRrkrYfP"
     id="path16" />
  <path
     style="fill: rgb(255, 255, 255); stroke: rgb(0, 0, 0); stroke-width: 2px; stroke-opacity: 0; opacity: 0; pointer-events: all;"
     d="M46.834 72.798a5 5 0 0 1 5-5h32.33a5 5 0 0 1 5 5v21.75a5 5 0 0 1-5 5h-32.33a5 5 0 0 1-5-5z"
     class="s-y_bCXRrkrYfP"
     id="path18" />
  <path
     style="fill:#ffffff;fill-opacity:1;stroke:#6c8ebf;stroke-width:2.1611px;stroke-miterlimit:4;stroke-dasharray:none"
     d="m 109.05109,33.333287 c 0,5.00826 -4.05953,9.07157 -9.071574,9.07157 -5.00826,0 -9.07156,-4.06331 -9.07156,-9.07157 0,-5.00825 4.0633,-9.07156 9.07156,-9.07156 5.012044,0 9.071574,4.06331 9.071574,9.07156 z"
     class="s-y_bCXRrkrYfP"
     id="path34" />
  <text
     xml:space="preserve"
     style="font-style:normal;font-weight:normal;font-size:13.3333px;line-height:1.25;font-family:sans-serif;fill:#000000;fill-opacity:1;stroke:none"
     x="96.463371"
     y="38.0187"
     id="text420"><tspan
       sodipodi:role="line"
       id="tspan418"
       x="96.463371"
       y="38.0187">1</tspan></text>
</svg>
