<svg preserveAspectRatio="xMidYMid meet" viewBox="0 0 565.38 504.8" style="max-width: 500px;" width="100%" version="1.1" class="s-y_bCXRrkrYfP"><path style="fill-opacity: 0; stroke: rgb(0, 0, 0); stroke-width: 2px; stroke-opacity: 0;" d="m 349.68661,250.7983 c 0,40.28 -32.24,72.93 -72,72.93 -39.76,0 -72,-32.65 -72,-72.93 0,-40.28 32.24,-72.93 72,-72.93 39.76,0 72,32.65 72,72.93 z m -217.7,104 c 0,30.93 -25.06,56 -56,56 -30.9,0 -56,-25.07 -56,-56 0,-30.93 25.1,-56 56,-56 30.94,0 56,25.07 56,56 z m 0,-208 c 0,30.93 -25.06,56 -56,56 -30.9,0 -56,-25.07 -56,-56 0,-30.93 25.1,-56 56,-56 30.94,0 56,25.07 56,56 z" class="s-y_bCXRrkrYfP"></path><path style="fill: rgb(255, 255, 255); stroke: rgb(66, 186, 255); stroke-width: 4px;" d="m 341.68661,250.7983 c 0,35.35 -28.65,64 -64,64 -35.35,0 -64,-28.65 -64,-64 0,-35.35 28.65,-64 64,-64 35.35,0 64,28.65 64,64 z" class="s-y_bCXRrkrYfP"></path><path style="fill: rgb(255, 255, 255); stroke: rgb(108, 142, 191); stroke-width: 3px;" d="m 123.98661,146.7983 c 0,26.5 -21.48,48 -48,48 -26.5,0 -48,-21.5 -48,-48 0,-26.5 21.5,-48 48,-48 26.52,0 48,21.5 48,48 z" class="s-y_bCXRrkrYfP"></path><path style="fill: rgb(255, 255, 255); stroke: rgb(108, 142, 191); stroke-width: 3px;" d="m 123.98661,354.7983 c 0,26.5 -21.48,48 -48,48 -26.5,0 -48,-21.5 -48,-48 0,-26.5 21.5,-48 48,-48 26.52,0 48,21.5 48,48 z" class="s-y_bCXRrkrYfP"></path><path style="fill: rgb(255, 255, 255); fill-opacity: 1; stroke: rgb(108, 142, 191); stroke-width: 2.1611px; stroke-miterlimit: 4; stroke-dasharray: none;" d="m 119.03041,321.84414 c 0,5.00826 -4.05953,9.07157 -9.07157,9.07157 -5.00826,0 -9.07156,-4.06331 -9.07156,-9.07157 0,-5.00825 4.0633,-9.07156 9.07156,-9.07156 5.01204,0 9.07157,4.06331 9.07157,9.07156 z" class="s-y_bCXRrkrYfP"></path><path style="fill: rgb(252, 148, 50); stroke: rgb(0, 0, 0); stroke-opacity: 0;" d="m 262.18661,225.9583 h -4.64 c -0.34,0 -0.64,-0.13 -0.9,-0.38 -0.5,-0.5 -0.5,-1.3 0,-1.8 l 20.44,-20.6 h 0.04 c 0.52,-0.5 1.33,-0.5 1.8,0.03 l 19.84,20.57 c 0.2,0.25 0.34,0.58 0.34,0.9 0,0.7 -0.55,1.3 -1.28,1.3 h -4.72 l -0.08,16.75 c 0,0.7 -0.56,1.28 -1.3,1.28 h -8.94 v -11.5 c 0,-0.74 -0.64,-1.4 -1.42,-1.4 h -7.4 c -0.82,0 -1.46,0.66 -1.46,1.4 v 11.5 h -9.04 c -0.7,0 -1.3,-0.58 -1.3,-1.28 v -16.76 z" class="s-y_bCXRrkrYfP"></path><path style="fill: rgb(0, 138, 14); stroke: rgb(0, 0, 0); stroke-width: 0.01px; stroke-opacity: 0;" d="m 89.98661,315.4383 c -0.1,0.34 -0.13,0.7 -0.13,0.73 0,0.04 0.16,0.1 0.33,0.1 0.2,0 0.37,-0.06 0.37,-0.1 0,-0.13 -0.3,-1.33 -0.33,-1.37 -0.04,-0.04 -0.12,0.26 -0.25,0.64 z m -2.87,0.22 c 0.2,0.64 0.45,1.37 0.5,1.37 0.03,-0.05 0.16,-0.1 0.32,-0.18 0.12,-0.04 0.24,-0.12 0.24,-0.17 0,-0.04 -0.25,-0.3 -0.54,-0.64 -0.32,-0.3 -0.53,-0.47 -0.53,-0.38 z m 5.6,0.38 c -0.24,0.34 -0.5,0.6 -0.5,0.64 0,0.05 0.13,0.13 0.26,0.17 0.15,0.1 0.27,0.13 0.3,0.18 0.05,0 0.54,-1.42 0.46,-1.46 0,-0.04 -0.24,0.2 -0.53,0.47 z m -3.39,1.58 c -2.3,0.65 -3.23,3.3 -1.84,5.23 0.4,0.6 1.18,1.1 1.84,1.28 0.7,0.17 1.72,0.08 2.33,-0.2 1.47,-0.74 2.25,-2.45 1.76,-4.04 -0.25,-0.73 -0.62,-1.25 -1.23,-1.72 -0.78,-0.6 -1.92,-0.86 -2.86,-0.56 z m -3.97,0.68 0.62,0.57 0.2,-0.3 0.2,-0.35 -0.78,-0.2 c -0.4,-0.18 -0.78,-0.27 -0.82,-0.27 0,0 0.25,0.26 0.57,0.56 z m 9.41,-0.33 -0.74,0.25 0.16,0.35 0.2,0.34 0.58,-0.55 c 0.33,-0.3 0.6,-0.55 0.6,-0.6 0.14,-0.04 -0.15,0 -0.8,0.22 z m -10.06,2.69 c -0.33,0.1 -0.65,0.17 -0.65,0.22 -0.05,0 0.32,0.08 0.73,0.2 l 0.82,0.18 v -0.38 c 0,-0.43 0.04,-0.43 -0.9,-0.22 z m 10.1,0.17 c 0,0.43 0,0.43 0.98,0.22 l 0.65,-0.17 -0.78,-0.17 c -0.4,-0.12 -0.77,-0.2 -0.8,-0.2 0,0 -0.05,0.16 -0.05,0.33 z m -9.42,2.53 c -0.27,0.3 -0.48,0.5 -0.48,0.56 0.05,0.04 0.82,-0.18 1.35,-0.4 0.08,0 0.08,-0.08 -0.04,-0.33 -0.12,-0.18 -0.2,-0.3 -0.24,-0.3 l -0.6,0.46 z m 8.84,-0.26 c -0.04,0.13 -0.12,0.26 -0.16,0.3 0,0.1 1.14,0.56 1.4,0.56 0.1,0 -0.34,-0.47 -0.75,-0.8 l -0.32,-0.27 -0.16,0.2 z m -38.66,0.77 c 0,0.1 1.26,4.1 2.82,8.9 1.55,4.84 4,12.33 5.4,16.74 1.42,4.37 2.6,8 2.7,8.05 0.07,0.04 0.15,0.04 0.23,0.04 0.2,-0.05 20.65,-11.86 20.65,-11.94 0,-0.13 -8.5,-20.33 -8.6,-20.42 -0.07,-0.08 -21.77,-1.54 -22.84,-1.54 -0.28,0 -0.36,0 -0.36,0.17 z m 12.26,1.16 c 5.64,0.25 10.42,0.55 10.6,0.6 l 0.27,0.04 4.1,9.8 c 2.25,5.4 4.1,9.8 4.05,9.84 -0.1,0.1 -19.87,11.1 -19.9,11.05 -0.05,-0.04 -10.4,-31.84 -10.4,-31.88 0,-0.04 0.2,-0.08 0.5,-0.04 0.28,0.04 5.15,0.3 10.8,0.6 z" class="s-y_bCXRrkrYfP"></path><path style="fill: rgb(0, 138, 14); stroke: rgb(0, 0, 0); stroke-width: 0.01px; stroke-opacity: 0;" d="m 59.64661,326.1383 c -0.32,0.2 -0.45,0.43 -0.45,0.9 0,0.43 1.44,4.7 1.7,5.05 0.23,0.3 0.77,0.63 1.13,0.8 0.25,0.05 0.82,0.13 0.82,0.05 0,0 -0.57,-1.6 -1.18,-3.47 -1.2,-3.42 -1.2,-3.47 -1.43,-3.47 -0.17,0 -0.4,0.06 -0.58,0.14 z m 1.24,-0.04 c 0.03,0.04 0.56,1.62 1.22,3.46 l 1.1,3.34 h 0.3 c 0.3,0 2.97,-0.25 3,-0.3 0.05,-0.04 -2.24,-6.46 -2.28,-6.5 0,0 -0.78,-0.04 -1.67,-0.04 -1.3,-0.05 -1.68,-0.05 -1.68,0.04 z m 3.75,0.13 c 0.04,0.08 0.53,1.45 1.1,3.08 0.58,1.6 1.07,3 1.1,3.1 0.1,0.16 0.33,0.2 0.62,0.03 0.2,-0.08 0.4,-0.5 0.4,-0.85 0,-0.4 -1.34,-4.16 -1.63,-4.54 -0.28,-0.4 -0.85,-0.77 -1.34,-0.9 -0.25,-0.04 -0.3,-0.04 -0.25,0.1 z m 3.72,0.07 c -0.16,0.05 -0.4,0.53 -0.4,0.74 0,0.26 1.38,3.94 1.63,4.32 0.24,0.4 0.9,0.8 1.22,0.8 0.25,0 0.25,0 0.2,-0.1 0,-0.1 -0.48,-1.38 -1.06,-2.84 -0.53,-1.45 -1.02,-2.74 -1.06,-2.82 -0.04,-0.13 -0.33,-0.17 -0.53,-0.1 z m 0.86,0 c 0,0.14 2.12,5.75 2.2,5.8 0.05,0.07 2.3,-0.14 2.34,-0.18 0.04,-0.04 -2.05,-5.44 -2.1,-5.57 -0.07,-0.04 -2.44,-0.12 -2.44,-0.04 z m 2.74,0.05 c 0,0.1 2.12,5.48 2.16,5.57 0.04,0 0.17,-0.04 0.3,-0.13 0.2,-0.18 0.23,-0.27 0.28,-0.6 0,-0.35 -0.12,-0.74 -0.7,-2.23 -0.64,-1.6 -0.77,-1.85 -1.05,-2.14 -0.4,-0.35 -0.98,-0.6 -0.98,-0.48 z m 2.73,0.25 c -0.08,0.1 -0.16,0.3 -0.16,0.44 0,0.34 1.23,3.42 1.56,3.94 0.2,0.3 0.94,0.77 1.06,0.64 0.08,-0.1 -2.05,-5.18 -2.17,-5.18 -0.05,0 -0.17,0.1 -0.3,0.17 z m 0.7,-0.12 c 0,0.13 1.96,4.92 2.04,5 0.13,0.14 1.8,-0.03 1.8,-0.12 0,-0.13 -1.88,-4.66 -1.96,-4.75 -0.08,-0.12 -1.88,-0.2 -1.88,-0.12 z m 2.13,0.09 c 0,0.17 2,4.83 2.08,4.83 0.2,0 0.34,-0.2 0.34,-0.6 0,-0.6 -1.23,-3.42 -1.68,-3.85 -0.28,-0.3 -0.73,-0.5 -0.73,-0.38 z m 1.43,6.38 c -0.45,0.08 -0.82,0.12 -0.86,0.17 -0.04,0 2.08,5.26 2.16,5.35 0.05,0.04 1.56,-0.35 1.68,-0.43 0.04,-0.1 -1.92,-5.05 -2.08,-5.14 -0.05,-0.04 -0.4,0 -0.9,0.05 z m 1.14,-0.13 c 0,0.17 2.13,5.1 2.2,5.1 0.2,0.07 0.38,-0.57 0.3,-0.9 -0.05,-0.35 -1.03,-2.75 -1.35,-3.35 -0.17,-0.38 -0.74,-0.85 -0.94,-0.85 h -0.2 z m -2.57,0.48 c -0.37,0.33 -0.33,0.67 0.45,2.64 0.8,2 1.02,2.35 1.47,2.57 0.65,0.3 0.65,0.27 -0.5,-2.56 -0.57,-1.45 -1.1,-2.7 -1.14,-2.78 -0.03,-0.1 -0.07,-0.1 -0.27,0.13 z m -4.26,0.42 c -0.65,0.08 -1.14,0.17 -1.18,0.17 0,0.03 2.24,6.1 2.32,6.23 0,0.05 2.25,-0.6 2.33,-0.64 0,-0.05 -2.2,-5.83 -2.3,-5.9 -0.03,0 -0.56,0.03 -1.18,0.12 z m 1.76,0.55 1.15,3 c 0.86,2.14 0.86,2.18 1.06,2.05 0.24,-0.17 0.4,-0.47 0.4,-0.8 0,-0.35 -1.3,-3.78 -1.63,-4.3 -0.2,-0.33 -0.6,-0.63 -0.97,-0.68 l -0.32,-0.04 0.33,0.77 z m -3.59,-0.3 c -0.33,0.17 -0.54,0.7 -0.5,1.07 0.1,0.56 1.52,4.32 1.76,4.62 0.25,0.35 0.57,0.52 0.94,0.6 0.53,0.13 0.5,0.05 -0.7,-3.16 -0.65,-1.72 -1.18,-3.13 -1.22,-3.17 -0.04,-0.04 -0.16,0 -0.28,0.04 z m -3.81,0.47 c 0,0.13 2.42,6.8 2.46,6.9 0.03,0.04 0.2,0 0.35,-0.14 0.33,-0.17 0.54,-0.64 0.54,-1.07 0,-0.47 -1.5,-4.5 -1.8,-4.96 -0.18,-0.2 -0.42,-0.43 -0.7,-0.56 -0.46,-0.2 -0.87,-0.24 -0.87,-0.16 z m -2.13,0.26 c -0.77,0.13 -1.46,0.2 -1.46,0.26 -0.08,0.04 2.37,7.27 2.45,7.4 0.03,0.04 2.97,-0.77 3.14,-0.86 0.16,-0.08 -2.33,-7 -2.54,-7 l -1.6,0.2 z m -2.6,0.5 c -0.38,0.23 -0.58,0.66 -0.58,1.13 0,0.5 1.5,5.05 1.84,5.47 0.33,0.47 0.9,0.73 1.5,0.73 h 0.46 l -0.98,-2.82 c -1.63,-4.83 -1.6,-4.7 -1.8,-4.7 -0.12,0 -0.33,0.08 -0.45,0.2 z m 19.98,4.34 c 0.5,1.24 2.17,5.22 2.2,5.26 0.05,0.08 0.13,0.04 0.2,-0.1 0.3,-0.37 0.13,-1.1 -0.6,-2.9 -0.78,-1.84 -1.1,-2.35 -1.6,-2.35 -0.16,0 -0.2,0.04 -0.2,0.1 z m -1.14,0.26 -0.78,0.3 c -0.08,0.03 2.17,5.56 2.25,5.68 0.05,0.05 0.46,-0.12 0.87,-0.38 l 0.8,-0.43 -1.1,-2.7 c -0.6,-1.5 -1.18,-2.73 -1.22,-2.73 -0.04,0 -0.4,0.12 -0.8,0.25 z m -1.27,0.46 c -0.2,0.1 -0.37,0.7 -0.3,1.03 0,0.12 0.38,1.1 0.83,2.17 0.78,2 1.06,2.48 1.55,2.57 0.5,0.1 0.45,0 -0.7,-2.95 -0.65,-1.55 -1.18,-2.84 -1.18,-2.88 -0.04,-0.04 -0.12,0 -0.2,0.04 z m -2.7,0.86 c -0.08,0.13 2.33,6.3 2.45,6.3 0.2,0 0.4,-0.6 0.4,-1.08 0,-0.43 -0.1,-0.8 -0.76,-2.53 -0.86,-2.08 -1.07,-2.42 -1.64,-2.64 -0.3,-0.13 -0.37,-0.13 -0.45,-0.04 z m -1.51,0.48 c -0.6,0.2 -1.1,0.42 -1.1,0.42 0,0.13 2.4,6.5 2.5,6.6 0.03,0.03 0.52,-0.18 1.13,-0.48 0.9,-0.43 1.06,-0.56 1,-0.73 -0.07,-0.38 -2.36,-6.2 -2.44,-6.15 l -1.1,0.34 z m -1.8,0.67 c -0.57,0.56 -0.5,1.03 0.4,3.5 0.83,2.28 1,2.58 1.28,2.88 0.4,0.34 1.3,0.47 1.18,0.13 -0.33,-1.03 -2.5,-6.63 -2.57,-6.63 -0.1,-0.05 -0.2,0.04 -0.3,0.12 z m -3.64,1.2 c 0.04,0.05 0.66,1.76 1.35,3.77 l 1.3,3.64 0.25,-0.13 c 0.33,-0.26 0.58,-0.82 0.58,-1.4 0,-0.5 -0.13,-0.87 -0.82,-2.75 -0.45,-1.24 -0.9,-2.36 -0.98,-2.53 -0.3,-0.47 -0.78,-0.73 -1.27,-0.73 -0.33,0 -0.4,0.05 -0.4,0.13 z m -2.04,0.56 c -0.82,0.26 -1.47,0.5 -1.5,0.5 0,0.06 2.15,6.56 2.68,7.93 0.04,0.17 0.1,0.17 1.6,-0.6 0.82,-0.43 1.5,-0.8 1.5,-0.86 0.1,-0.17 -2.56,-7.44 -2.7,-7.44 -0.07,0 -0.76,0.2 -1.58,0.47 z m -2.25,0.81 c -0.57,0.34 -0.86,0.9 -0.86,1.54 0,0.26 0.33,1.33 0.9,3.04 0.94,2.9 1.1,3.2 1.72,3.47 0.48,0.2 1.26,0.12 1.26,-0.1 0,-0.13 -2.66,-7.96 -2.74,-8.04 0,-0.05 -0.17,0 -0.3,0.08 z m 20.85,-19.56 c -0.13,0.4 -0.2,0.73 -0.25,0.82 -0.04,0.17 0.94,-0.82 1.02,-1 0.04,-0.03 -0.12,-0.16 -0.28,-0.24 l -0.3,-0.17 -0.2,0.58 z m 5.15,-0.42 -0.33,0.2 0.57,0.6 c 0.62,0.7 0.62,0.65 0.25,-0.42 l -0.2,-0.55 -0.3,0.16 z m -2.66,0.68 c 0,0.22 0.3,1.4 0.33,1.4 0.04,0 0.37,-1.23 0.37,-1.44 0,0 -0.17,-0.04 -0.37,-0.04 -0.17,0 -0.33,0.04 -0.33,0.08 z" class="s-y_bCXRrkrYfP"></path><path style="fill: rgb(232, 19, 19); stroke: rgb(0, 0, 0); stroke-width: 0.01px; stroke-opacity: 0;" d="m 72.57161,106.9283 -0.1,0.98 -3.5,0.06 h -3.54 v 1.52 h 0.33 c 0.3,0 0.3,0 0.3,-0.45 v -0.4 h 2.09 l 1.98,1.3 1.98,1.28 h -3.35 l -3.34,0.05 v 1.63 h 0.65 v -0.95 h 1.78 l 1.97,1.3 1.98,1.3 -3.2,0.03 h -3.2 v 1.78 h 0.66 v -1.16 l 0.73,0.1 0.75,0.04 1.94,1.3 c 1.12,0.7 1.96,1.32 1.98,1.4 0,0.1 -0.42,4.86 -0.97,10.64 -0.55,5.73 -1.14,12.18 -1.36,14.36 -0.2,2.18 -0.4,4.13 -0.43,4.36 l -0.05,0.44 h 7.16 c 4.76,0 7.14,0 7.14,-0.1 l -0.5,-5.46 c -1.84,-19.16 -2.3,-24.27 -2.28,-24.36 0.02,-0.05 0.93,-0.67 1.98,-1.34 1.77,-1.15 2,-1.3 2.45,-1.33 h 0.5 v 1.11 h 0.66 v -1.78 h -2.9 l -2.92,-0.04 1.98,-1.3 2,-1.28 h 1.2 v 0.94 h 0.65 v -1.65 l -3.1,-0.05 h -3.07 l 1.98,-1.3 1.98,-1.28 h 1.58 v 0.4 c 0,0.45 0,0.45 0.33,0.45 h 0.32 v -1.5 h -6.52 l -0.05,-0.27 c -0.02,-0.14 -0.1,-0.6 -0.1,-1 l -0.07,-0.7 h -6.4 z m 5.75,0 c 0,0.1 0.02,0.36 0.06,0.58 l 0.08,0.46 h -2.53 c -1.4,0 -2.56,-0.05 -2.58,-0.1 -0.02,0 0,-0.3 0,-0.57 l 0.04,-0.54 h 2.48 c 2.34,0 2.47,0 2.47,0.17 z m -5.95,1.74 c 0.05,0.1 -0.13,1.95 -0.18,2 -0.04,0.04 -3,-1.9 -3,-2 -0.03,-0.05 0.7,-0.05 1.55,-0.05 0.88,0 1.6,0 1.63,0.05 z m 6.2,1.06 c 0.08,0.67 0.12,1.25 0.12,1.34 0,0.13 -0.2,0.18 -2.84,0.18 -2.16,0 -2.86,-0.05 -2.86,-0.14 0,-0.2 0.22,-2.25 0.24,-2.4 0.02,-0.08 0.64,-0.08 2.64,-0.08 h 2.6 z m 4,-1.02 c -0.26,0.28 -3,1.97 -3.04,1.88 -0.04,0 -0.1,-0.5 -0.13,-1.02 l -0.1,-0.94 h 1.68 c 1.18,0 1.67,0 1.6,0.1 z m -10.55,4.2 c -0.05,0.48 -0.1,0.93 -0.13,1 -0.05,0.06 -0.58,-0.25 -1.55,-0.83 -0.8,-0.53 -1.5,-0.98 -1.52,-1.02 -0.04,-0.05 0.7,-0.1 1.6,-0.1 h 1.66 l -0.05,0.94 z m 6.8,-0.6 0.1,1.08 0.1,0.93 0.07,0.28 h -6.42 l 0.08,-0.8 c 0.04,-0.44 0.08,-1.07 0.13,-1.33 l 0.05,-0.5 h 5.83 l 0.07,0.36 z m 4.17,-0.3 c 0,0.1 -3.1,2.05 -3.13,2 -0.05,-0.04 -0.25,-1.55 -0.25,-1.86 0,-0.14 0.15,-0.18 1.7,-0.18 0.92,0 1.67,0.04 1.67,0.04 z m -11.3,4 c -0.02,0.36 -0.05,0.85 -0.1,1.03 l -0.03,0.35 -1.58,-0.98 c -0.86,-0.57 -1.56,-1.06 -1.58,-1.06 0,-0.05 0.75,-0.05 1.67,-0.05 h 1.66 l -0.04,0.7 z m 7.5,0.05 c 0.03,0.4 0.08,0.93 0.12,1.2 l 0.04,0.44 h -6.93 l 0.06,-0.98 c 0.08,-1.25 0.12,-1.38 0.4,-1.43 h 6.25 l 0.06,0.75 z m 4,-0.7 c 0,0.03 -2.74,1.8 -2.96,1.9 -0.08,0.04 -0.13,-0.18 -0.2,-0.9 -0.06,-0.52 -0.08,-0.97 -0.08,-1 0.04,-0.1 3.24,-0.1 3.24,0 z m -4.4,2.83 c -0.16,0.14 -2.87,1.78 -2.94,1.78 -0.1,0 -2.8,-1.64 -2.95,-1.78 0,0 1.3,-0.04 2.95,-0.04 1.63,0 2.95,0.04 2.93,0.04 z m -4.66,1.34 c 0.66,0.4 1.2,0.75 1.2,0.75 0,0.1 -3.3,2.1 -3.36,2.05 -0.04,-0.05 0.27,-3.56 0.33,-3.78 0.03,-0.1 0.12,-0.1 0.36,0.04 0.14,0.14 0.8,0.54 1.46,0.94 z m 5.3,-0.8 c 0,0.17 0.1,1.06 0.2,1.95 0.08,0.94 0.12,1.7 0.1,1.7 -0.05,0 -3.28,-2 -3.3,-2.05 -0.05,-0.1 2.8,-1.87 2.95,-1.9 0.05,0 0.07,0.16 0.07,0.3 z m -1.5,3.1 c 0.67,0.4 1.23,0.8 1.23,0.8 0,0.05 -1.5,0.1 -3.34,0.1 -2.86,0 -3.33,0 -3.22,-0.13 0.1,-0.1 0.84,-0.55 1.68,-1.08 l 1.54,-0.94 0.44,0.27 1.65,0.98 z m 1.23,1.48 c -0.04,0.04 -0.8,0.53 -1.67,1.1 -1.38,0.85 -1.65,1.03 -1.8,0.94 -0.27,-0.13 -2.9,-1.87 -3.02,-1.95 -0.06,-0.1 1.3,-0.1 3.23,-0.1 h 3.26 z m -5.5,1.46 c 0.86,0.54 1.56,1.03 1.56,1.03 0,0.08 -3.78,2.48 -3.8,2.43 -0.03,-0.04 0.06,-1.1 0.17,-2.35 0.18,-1.96 0.22,-2.23 0.35,-2.18 0.1,0.04 0.86,0.5 1.72,1.06 z m 6.26,-0.66 c 0.17,1.24 0.37,4.04 0.33,4.1 -0.04,0.03 -0.92,-0.5 -1.95,-1.12 -1.4,-0.94 -1.83,-1.25 -1.74,-1.34 0.16,-0.13 3.18,-2.1 3.25,-2.1 0.04,0 0.08,0.2 0.1,0.46 z m -2,3.42 1.75,1.1 -1.88,0.06 h -3.8 l -1.95,-0.05 1.9,-1.2 c 1.7,-1.1 1.9,-1.24 2.1,-1.1 0.1,0.03 0.96,0.6 1.9,1.2 z m 1.73,1.9 c -0.43,0.4 -3.82,2.72 -3.9,2.68 -0.2,-0.13 -3.66,-2.58 -3.75,-2.67 -0.05,-0.04 1.63,-0.1 3.83,-0.1 2.3,0 3.88,0.06 3.8,0.1 z m -6.35,1.7 c 1.06,0.76 1.9,1.38 1.9,1.43 0,0.08 -4.48,3.3 -4.52,3.24 -0.03,-0.05 0.1,-1.34 0.24,-2.94 l 0.3,-3.03 c 0,-0.1 0,-0.1 0.07,-0.1 0.05,0 0.95,0.64 2,1.4 z m 7.18,-1.02 c 0.1,0.8 0.53,5.6 0.5,5.65 -0.04,0.04 -4.5,-3.12 -4.53,-3.2 0,-0.05 3.8,-2.8 3.92,-2.8 0.02,0 0.1,0.17 0.1,0.35 z m -2.3,4.5 c 1.18,0.84 2.17,1.55 2.2,1.6 0.08,0.04 -1.93,0.08 -4.5,0.08 -4.06,0 -4.6,-0.04 -4.5,-0.13 0.4,-0.4 4.36,-3.16 4.5,-3.12 0.08,0 1.12,0.72 2.3,1.56 z m 2.12,2.4 c -0.24,0.26 -4.38,3.1 -4.47,3.1 -0.1,0 -4.36,-2.98 -4.54,-3.15 0,0 2.03,-0.05 4.54,-0.05 2.7,0 4.52,0.05 4.47,0.1 z m -7.4,1.95 2.3,1.64 -0.18,0.17 c -0.75,0.58 -5.14,3.65 -5.16,3.6 -0.03,-0.04 0.63,-7.07 0.67,-7.07 0.02,0 1.08,0.76 2.38,1.65 z m 8.28,-1.5 0.33,3.54 c 0.18,1.82 0.3,3.37 0.3,3.37 -0.05,0.05 -5.3,-3.7 -5.3,-3.78 0,-0.05 4.5,-3.3 4.63,-3.3 0,0 0.03,0.05 0.03,0.14 z m -2.75,5.4 c 1.34,1 2.47,1.8 2.5,1.83 0.08,0.05 -2.08,0.1 -5.05,0.1 -4.54,0 -5.16,-0.05 -5.05,-0.14 0.35,-0.36 5,-3.6 5.1,-3.56 0.03,0.05 1.18,0.85 2.5,1.78 z m 3.46,2.63 c 0.04,0.1 0.1,0.45 0.13,0.85 l 0.07,0.75 h -12.51 l 0.06,-0.75 c 0.04,-0.4 0.08,-0.8 0.1,-0.85 0.07,-0.08 12.07,-0.08 12.14,0 z m -16.62,4.13 -0.3,0.84 h 22.03 l -0.3,-0.84 -0.3,-0.85 h -20.85 z" class="s-y_bCXRrkrYfP"></path><path style="fill:none;stroke:#6db1ff;stroke-width:2;stroke-dasharray:5;animation:dash 5s linear infinite;" d="m 131.98661,146.7983 h 34.25 c 2.76142,0 5,2.23858 5,5 v 67.9 c 0,2.76142 2.23858,5 5,5 h 32.91174" class="s-y_bCXRrkrYfP"></path><path style="fill:none;stroke:#6db1ff;stroke-width:2;stroke-dasharray:5;animation:dash 5s linear infinite;" d="m 132.98661,354.7983 h 33.25 a 5,5 0 0 0 5,-5 v -67.9 a 5,5 0 0 1 5,-5 h 15.74" class="s-y_bCXRrkrYfP"></path><path style="fill: rgb(109, 177, 255); stroke: rgb(109, 177, 255); stroke-width: 0.05px;" d="m 133.02661,355.7983 h -1.07 l 0.04,-1 v -1 h 1.04 z" class="s-y_bCXRrkrYfP"></path><path style="fill: rgb(109, 177, 255); stroke: rgb(109, 177, 255); stroke-width: 2px;" d="m 209.23661,276.8983 -14.26,4.63 v -9.27 z" class="s-y_bCXRrkrYfP"></path><path style="fill: rgb(109, 177, 255); stroke: rgb(109, 177, 255); stroke-width: 2px;" d="m 209.23661,223.8983 -14.26,4.63 v -9.27 z" class="s-y_bCXRrkrYfP"></path><path style="fill:none;stroke:#6db1ff;stroke-width:2;stroke-dasharray:5;animation:dash 5s linear infinite;" d="m 344.22661,220.6483 h 39.08 a 5,5 0 0 0 5,-5 v -22.65 a 5,5 0 0 1 5,-5 h 21.57" class="s-y_bCXRrkrYfP"></path><path style="fill: rgb(109, 177, 255); stroke: rgb(109, 177, 255); stroke-width: 0.05px;" d="m 344.25661,221.6483 h -0.57 l -0.93,-2 h 1.5 z" class="s-y_bCXRrkrYfP"></path><path style="fill: rgb(109, 177, 255); stroke: rgb(109, 177, 255); stroke-width: 2px;" d="m 430.14661,187.9983 -14.27,4.64 v -9.27 z" class="s-y_bCXRrkrYfP"></path><path style="fill:none;stroke:#6db1ff;stroke-width:2;stroke-dasharray:5;animation:dash 5s linear infinite;" d="m 324.44661,307.1983 v 116.6 a 5,5 0 0 0 5,5 h 18.22" class="s-y_bCXRrkrYfP"></path><path style="fill: rgb(109, 177, 255); stroke: rgb(109, 177, 255); stroke-width: 0.05px;" d="m 325.44661,307.2283 h -2 v -0.16 l 2,-1.73 z" class="s-y_bCXRrkrYfP"></path><path style="fill: rgb(109, 177, 255); stroke: rgb(109, 177, 255); stroke-width: 2px;" d="m 362.93661,428.7983 -14.27,4.64 v -9.28 z" class="s-y_bCXRrkrYfP"></path><path style="fill:none;stroke:#6db1ff;stroke-width:2;" d="m 343.44661,282.5983 h 39.47 a 5,5 0 0 1 5,5 v 24.2 a 5,5 0 0 0 5,5 h 21.96" class="s-y_bCXRrkrYfP"></path><path style="fill: rgb(109, 177, 255); stroke: rgb(109, 177, 255); stroke-width: 0.05px;" d="m 343.48661,283.5983 h -1.5 l 0.94,-2 h 0.55 z" class="s-y_bCXRrkrYfP"></path><path style="fill: rgb(109, 177, 255); stroke: rgb(109, 177, 255); stroke-width: 2px;" d="m 430.14661,316.7983 -14.27,4.64 v -9.28 z" class="s-y_bCXRrkrYfP"></path><path style="fill:none;stroke:#6db1ff;stroke-width:2;" d="m 323.58661,193.6483 v -112.65 a 5,5 0 0 1 5,-5 h 19.88" class="s-y_bCXRrkrYfP"></path><path style="fill: rgb(109, 177, 255); stroke: rgb(109, 177, 255); stroke-width: 0.05px;" d="m 324.58661,195.5283 -1.7,-1.5 -0.3,-0.22 v -0.17 h 2 z" class="s-y_bCXRrkrYfP"></path><path style="fill: rgb(109, 177, 255); stroke: rgb(109, 177, 255); stroke-width: 2px;" d="m 363.73661,75.9983 -14.27,4.64 v -9.27 z" class="s-y_bCXRrkrYfP"></path><path style="fill-opacity: 0; stroke: rgb(0, 0, 0); stroke-width: 2px; stroke-opacity: 0;" d="m 478.96661,75.9983 c 0,30.93 -25.07,56 -56,56 -30.92,0 -56,-25.07 -56,-56 0,-30.93 25.08,-56 56,-56 30.93,0 56,25.07 56,56 z" class="s-y_bCXRrkrYfP"></path><path style="fill: rgb(255, 255, 255); stroke: rgb(108, 142, 191); stroke-width: 3px;" d="m 470.96661,75.9983 c 0,26.5 -21.5,48 -48,48 -26.5,0 -48,-21.5 -48,-48 0,-26.5 21.5,-48 48,-48 26.5,0 48,21.5 48,48 z" class="s-y_bCXRrkrYfP"></path><path style="fill: rgb(237, 116, 2); stroke: rgb(0, 0, 0); stroke-width: 0.01px; stroke-opacity: 0;" d="m 437.05118,35.1183 c -1.88,1.5 -3.5,3.36 -4.23,4.84 -0.54,1.1 -0.7,1.68 -0.7,2.7 0,2.47 1,3.94 3.08,4.5 0.74,0.2 2.66,0.3 3.43,0.12 0.66,-0.17 1.5,-0.55 1.8,-0.8 0.47,-0.38 0.78,-0.93 0.97,-1.6 0.16,-0.63 0.16,-0.8 0.12,-2.15 -0.04,-1.3 -0.04,-1.6 0.1,-2.3 0.1,-0.43 0.28,-1.02 0.4,-1.27 l 0.2,-0.5 c -0.1,-0.1 -1.36,0.24 -2,0.5 -0.43,0.16 -0.78,0.3 -0.82,0.25 -0.08,-0.08 0.12,-1.6 0.3,-2.3 0.12,-0.38 0.16,-0.68 0.16,-0.72 -0.04,-0.04 -0.65,0.3 -1.2,0.63 -0.53,0.35 -0.53,0.35 -0.72,-0.5 -0.16,-0.67 -0.16,-0.96 0,-1.6 0.08,-0.25 0.1,-0.5 0.1,-0.5 -0.02,0 -0.45,0.34 -1,0.72 z m 0.43,7.87 c 0.1,0.4 0.23,0.87 0.3,1.04 l 0.12,0.3 0.46,-0.47 c 0.3,-0.34 0.58,-0.8 0.9,-1.43 l 0.45,-0.93 0.1,0.52 c 0.1,0.25 0.13,0.8 0.13,1.18 0,0.7 -0.04,0.75 -0.35,1.43 -0.45,0.88 -0.68,1.13 -1.33,1.22 -0.77,0.08 -2.5,0.08 -2.93,-0.05 -1.12,-0.33 -1.77,-2.14 -1.15,-3.32 0.1,-0.25 0.22,-0.42 0.25,-0.42 0,0 0.04,0.17 0.04,0.38 0,0.63 0.3,1.18 1.07,1.68 0.27,0.17 0.27,0.17 0.2,0 -0.16,-0.25 -0.12,-0.84 0.07,-1.22 0.12,-0.2 0.46,-0.67 0.77,-1 l 0.6,-0.64 0.07,0.5 c 0.03,0.26 0.15,0.8 0.23,1.23 z m -27.64,-7.49 c -0.27,0.25 -0.27,0.33 0.07,1 0.77,1.52 0.7,2.15 -0.3,4.17 -0.47,0.93 -0.74,1.8 -0.74,2.53 0,1.17 0.92,3.2 1.46,3.2 0.2,0 0.46,-0.34 0.46,-0.55 0,-0.1 -0.16,-0.42 -0.35,-0.68 -0.58,-0.92 -0.8,-1.93 -0.54,-2.86 0.04,-0.2 0.27,-0.75 0.5,-1.17 1.08,-2.18 1.2,-3.24 0.4,-4.88 -0.47,-0.96 -0.63,-1.1 -0.97,-0.75 z m 4.5,0 c -0.12,0.12 -0.23,0.25 -0.23,0.33 0,0.04 0.2,0.47 0.38,0.9 0.67,1.3 0.63,1.84 -0.26,3.73 -0.73,1.47 -0.77,1.73 -0.77,2.7 0,1.13 0.4,2.27 1,2.94 0.3,0.34 0.43,0.34 0.66,0.13 0.27,-0.26 0.23,-0.47 -0.15,-1.06 -0.4,-0.63 -0.58,-1.1 -0.66,-1.76 -0.04,-0.67 0.16,-1.3 0.7,-2.43 1.03,-2.07 1.1,-3.16 0.26,-4.84 -0.42,-0.84 -0.6,-0.97 -0.92,-0.63 z m 4.62,-0.13 c -0.2,0.04 -0.35,0.25 -0.35,0.46 0,0.1 0.2,0.5 0.4,0.93 0.6,1.26 0.53,1.93 -0.36,3.74 -0.27,0.55 -0.58,1.22 -0.65,1.52 -0.35,1.34 0.04,3.1 0.88,4.08 0.3,0.3 0.5,0.34 0.7,0.13 0.23,-0.26 0.15,-0.6 -0.2,-1.14 -0.46,-0.68 -0.6,-1.23 -0.57,-2.16 0.03,-0.67 0.07,-0.75 0.6,-1.93 1.1,-2.26 1.17,-3.2 0.28,-4.92 -0.3,-0.63 -0.5,-0.8 -0.72,-0.7 z m 4.27,0.13 c -0.23,0.25 -0.23,0.33 0.12,1 0.73,1.52 0.7,2.15 -0.3,4.17 -0.5,0.93 -0.74,1.8 -0.74,2.53 0,0.88 0.54,2.35 1.04,2.9 0.3,0.34 0.46,0.34 0.7,0.13 0.22,-0.26 0.22,-0.5 -0.16,-1.06 -0.38,-0.6 -0.65,-1.4 -0.65,-2.02 0,-0.6 0.16,-1.13 0.62,-2.02 1.1,-2.23 1.2,-3.24 0.38,-4.88 -0.46,-0.96 -0.65,-1.1 -1,-0.75 z m 4.51,-0.1 c -0.27,0.22 -0.23,0.56 0.15,1.36 0.63,1.22 0.55,2.1 -0.34,3.74 -0.53,1 -0.73,1.73 -0.73,2.6 0,1.15 0.35,2.2 0.97,2.96 0.3,0.33 0.5,0.42 0.73,0.17 0.2,-0.22 0.15,-0.6 -0.08,-0.93 -0.35,-0.46 -0.62,-1.1 -0.7,-1.64 -0.15,-0.8 0,-1.43 0.55,-2.48 1.1,-2.23 1.2,-3.37 0.34,-5.05 -0.15,-0.38 -0.38,-0.72 -0.46,-0.76 -0.23,-0.13 -0.2,-0.13 -0.42,0.04 z m -23.46,13.64 c -0.1,0.1 -0.26,0.26 -0.37,0.42 -0.16,0.3 -0.16,0.34 -0.2,13 0,7 0,12.88 0.04,13.1 0.04,0.24 0.12,0.46 0.3,0.62 0.28,0.26 0.36,0.3 0.78,0.3 1.04,0 1.46,-0.5 1.46,-1.7 v -0.66 h 1.67 l 0.04,0.84 c 0.05,1.22 0.28,1.52 1.16,1.52 0.93,0 1.4,-0.6 1.4,-1.7 v -0.66 h 1.49 v 0.63 c 0,0.76 0.12,1.14 0.42,1.43 0.23,0.2 0.35,0.26 0.77,0.3 1,0.04 1.35,-0.34 1.4,-1.56 l 0.03,-0.8 h 1.65 v 0.72 c 0,1.26 0.4,1.68 1.4,1.64 0.87,-0.1 1.18,-0.5 1.18,-1.73 v -0.63 h 1.58 v 0.72 c 0,1.13 0.4,1.64 1.27,1.64 0.96,0 1.4,-0.55 1.4,-1.7 v -0.66 h 1.6 v 0.72 c 0,0.84 0.2,1.3 0.58,1.5 0.35,0.18 1.04,0.18 1.4,-0.03 0.45,-0.24 0.53,-0.5 0.56,-1.38 l 0.03,-0.8 h 1.65 v 0.67 c 0,1.22 0.32,1.68 1.16,1.68 1,0 1.43,-0.5 1.43,-1.7 v -0.66 h 1.43 v 0.67 c 0,0.8 0.15,1.13 0.7,1.43 l 0.33,0.2 3,0.05 c 2.54,0 3.05,0 3.4,-0.13 0.38,-0.12 0.72,-0.42 0.88,-0.76 0.08,-0.13 0.12,-3.67 0.12,-12.8 v -12.62 l -0.2,-0.38 c -0.1,-0.25 -0.26,-0.42 -0.53,-0.6 l -0.4,-0.2 h -6.27 l -0.34,0.25 c -0.6,0.34 -0.7,0.68 -0.7,1.9 v 0.97 h -1.43 v -1 c 0,-1.15 -0.12,-1.53 -0.54,-1.9 -0.2,-0.18 -0.3,-0.22 -0.85,-0.22 -0.58,0 -0.6,0 -0.8,0.25 -0.3,0.3 -0.4,0.72 -0.4,1.86 v 1.02 h -1.65 l -0.04,-1.14 c 0,-1 -0.04,-1.18 -0.2,-1.47 -0.27,-0.37 -0.58,-0.54 -1.15,-0.54 -0.4,0 -0.5,0.04 -0.73,0.25 -0.4,0.35 -0.47,0.73 -0.47,1.9 v 1.02 h -1.6 v -1 c 0,-1.15 -0.1,-1.53 -0.5,-1.9 -0.24,-0.18 -0.32,-0.22 -0.9,-0.22 -0.58,0 -0.6,0 -0.85,0.25 -0.34,0.38 -0.42,0.76 -0.42,1.9 v 0.97 h -1.57 v -1.14 c -0.04,-1 -0.07,-1.18 -0.23,-1.47 -0.27,-0.37 -0.58,-0.54 -1.15,-0.54 -0.43,0 -0.5,0.04 -0.73,0.3 -0.4,0.33 -0.48,0.7 -0.48,1.9 v 0.96 h -1.69 v -0.97 c 0,-1.14 -0.08,-1.52 -0.4,-1.85 -0.22,-0.26 -0.3,-0.3 -0.76,-0.3 -0.42,-0.04 -0.57,0 -0.8,0.13 -0.47,0.3 -0.54,0.6 -0.58,1.85 l -0.05,1.14 h -1.5 v -1 c 0,-0.9 0,-1.07 -0.16,-1.4 -0.3,-0.55 -0.66,-0.76 -1.28,-0.76 -0.42,0 -0.53,0.04 -0.73,0.25 -0.3,0.3 -0.43,0.73 -0.43,1.9 v 1.02 h -1.63 v -1 c 0,-1.15 -0.1,-1.53 -0.52,-1.9 -0.2,-0.18 -0.35,-0.22 -0.74,-0.22 -0.3,-0.04 -0.6,0 -0.73,0.04 z m 3.67,14.1 v 7.15 h -1.67 v -14.36 h 1.67 v 7.2 z m 4.08,0 v 7.15 h -1.5 v -14.36 h 1.5 v 7.2 z m 4.27,0 v 7.15 h -1.69 v -14.36 h 1.69 v 7.2 z m 4.16,0 v 7.15 h -1.57 v -14.36 h 1.58 v 7.2 z m 4.27,0 v 7.15 h -1.6 v -14.36 h 1.6 v 7.2 z m 4.24,0 v 7.15 h -1.66 v -14.36 h 1.65 v 7.2 z m 4,0 v 7.15 h -1.43 v -14.36 h 1.43 v 7.2 z m 4.92,2.86 c 0.5,0.25 0.8,0.93 0.7,1.47 -0.08,0.38 -0.58,0.9 -0.97,1 -0.62,0.18 -1.27,-0.15 -1.54,-0.7 -0.3,-0.68 0,-1.52 0.74,-1.8 0.2,-0.14 0.8,-0.1 1.08,0.03 z m 0.08,5.34 c 0.3,0.17 0.65,0.8 0.65,1.14 0,0.34 -0.3,0.88 -0.65,1.1 -0.54,0.33 -1.4,0.16 -1.77,-0.38 -0.27,-0.34 -0.3,-0.97 -0.08,-1.4 0.38,-0.62 1.27,-0.88 1.85,-0.46 z" class="s-y_bCXRrkrYfP"></path><path style="fill-opacity: 0; stroke: rgb(0, 0, 0); stroke-width: 2px; stroke-opacity: 0;" d="m 545.38661,187.9983 c 0,30.93 -25.08,56 -56,56 -30.93,0 -56,-25.07 -56,-56 0,-30.93 25.07,-56 56,-56 30.92,0 56,25.07 56,56 z" class="s-y_bCXRrkrYfP"></path><path style="fill: rgb(255, 255, 255); stroke: rgb(108, 142, 191); stroke-width: 3px;" d="m 537.38661,187.9983 c 0,26.5 -21.5,48 -48,48 -26.5,0 -48,-21.5 -48,-48 0,-26.5 21.5,-48 48,-48 26.5,0 48,21.5 48,48 z" class="s-y_bCXRrkrYfP"></path><path style="fill: rgb(237, 116, 2); stroke: rgb(0, 0, 0); stroke-width: 0.15px; stroke-opacity: 0;" d="m 499.78661,180.1283 c -0.08,-9.94 -0.06,-19.92 0,-29.85 0,-1.7 -0.64,-2.75 -2.14,-3.24 -5.5,-1.88 -11,-1.92 -16.5,0 -1.5,0.5 -2.2,1.5 -2.18,3.2 0.1,4.94 0.05,9.9 0.05,14.84 0,5.03 0.06,10.02 -0.05,15.05 -0.04,1.58 0.63,2.4 2.07,2.7 5.56,1.25 11.1,1.25 16.7,0 1.4,-0.3 2.08,-1.08 2.06,-2.7 z m -10.3,-29.98 c 1.6,0.05 2.98,1.46 2.98,3.04 -0.02,1.7 -1.48,3.06 -3.2,2.98 -1.63,-0.04 -2.97,-1.4 -2.95,-3 0,-1.65 1.48,-3.07 3.17,-3.03 z m -2.58,18.55 c 0.7,-1.42 1.4,-2.83 2.23,-4.45 0.97,1.5 2.1,3.03 2.95,4.65 0.8,1.54 0.9,3.16 -0.68,4.37 -1.36,1.04 -2.82,1 -4.06,-0.13 -1.44,-1.3 -1.23,-2.87 -0.44,-4.44 z m 6.81,16.08 h -8.77 c 2.27,3.25 6.98,3.2 8.77,0 z" class="s-y_bCXRrkrYfP"></path><path style="fill: rgb(237, 116, 2); stroke: rgb(0, 0, 0); stroke-width: 0.15px; stroke-opacity: 0;" d="m 489.19127,154.5983 c 0.16,0 0.3,-0.16 0.3,-0.33 v -0.08 l -0.3,-3.5 -0.32,3.44 c -0.02,0.05 -0.02,0.1 -0.02,0.13 0,0.17 0.15,0.33 0.34,0.33 z m 0.02,12.1 -1.25,3.2 1.54,0.2 -0.78,3.13 2.08,-3.7 -1.8,-0.38 0.22,-2.45 z" class="s-y_bCXRrkrYfP"></path><path style="fill-opacity: 0; stroke: rgb(0, 0, 0); stroke-width: 2px; stroke-opacity: 0;" d="m 545.38661,316.7983 c 0,30.93 -25.08,56 -56,56 -30.93,0 -56,-25.07 -56,-56 0,-30.93 25.07,-56 56,-56 30.92,0 56,25.07 56,56 z" class="s-y_bCXRrkrYfP"></path><path style="fill: rgb(255, 255, 255); stroke: rgb(108, 142, 191); stroke-width: 3px;" d="m 537.38661,316.7983 c 0,26.5 -21.5,48 -48,48 -26.5,0 -48,-21.5 -48,-48 0,-26.5 21.5,-48 48,-48 26.5,0 48,21.5 48,48 z" class="s-y_bCXRrkrYfP"></path><path style="fill: rgb(237, 116, 2); stroke: rgb(0, 0, 0); stroke-width: 0.29px; stroke-opacity: 0;" d="m 472.02661,293.0183 2.83,-8.05 c 1.07,-3.1 3.98,-5.17 7.27,-5.17 h 14.53 c 3.3,0 6.2,2.08 7.27,5.17 l 2.84,8.05 c 1.84,0.76 3.16,2.6 3.16,4.74 v 15.42 c 0,1.4 -1.15,2.55 -2.55,2.55 h -2.6 c -1.42,0 -2.53,-1.15 -2.53,-2.55 v -3.88 h -25.67 v 3.88 c 0,1.4 -1.15,2.55 -2.58,2.55 h -2.55 c -1.44,0 -2.6,-1.15 -2.6,-2.55 v -15.42 c 0,-2.15 1.33,-3.98 3.18,-4.74 z m 5.58,-0.4 h 23.58 l -2.1,-5.96 c -0.36,-1.04 -1.3,-1.72 -2.42,-1.72 h -14.53 c -1.1,0 -2.06,0.68 -2.43,1.72 l -2.1,5.97 z m -1.02,5.14 c -1.43,0 -2.58,1.15 -2.58,2.56 0,1.43 1.15,2.58 2.58,2.58 1.4,0 2.55,-1.15 2.55,-2.58 0,-1.4 -1.15,-2.56 -2.55,-2.56 z m 25.67,5.14 c 1.4,0 2.54,-1.15 2.54,-2.58 0,-1.4 -1.16,-2.56 -2.55,-2.56 -1.44,0 -2.6,1.15 -2.6,2.56 0,1.43 1.16,2.58 2.6,2.58 z" class="s-y_bCXRrkrYfP"></path><path style="fill-opacity: 0; stroke: rgb(0, 0, 0); stroke-width: 2px; stroke-opacity: 0;" d="m 478.16661,428.7983 c 0,30.93 -25.07,56 -56,56 -30.92,0 -56,-25.07 -56,-56 0,-30.93 25.08,-56 56,-56 30.93,0 56,25.07 56,56 z" class="s-y_bCXRrkrYfP"></path><path style="fill: rgb(255, 255, 255); stroke: rgb(108, 142, 191); stroke-width: 3px;" d="m 470.16661,428.7983 c 0,26.5 -21.5,48 -48,48 -26.5,0 -48,-21.5 -48,-48 0,-26.5 21.5,-48 48,-48 26.5,0 48,21.5 48,48 z" class="s-y_bCXRrkrYfP"></path><path style="fill: rgb(237, 116, 2); stroke: rgb(237, 116, 2); stroke-width: 0.01px;" d="m 407.60661,390.4983 c -1.05,0.08 -1.37,0.16 -2.2,0.55 -0.8,0.43 -1.78,1.37 -2.17,2.2 -0.63,1.24 -0.6,-0.05 -0.6,16.78 0,16.72 -0.03,15.5 0.56,16.68 0.35,0.8 1.48,1.92 2.26,2.27 1.17,0.6 0,0.55 16.7,0.55 16.84,0 15.55,0.04 16.76,-0.6 0.82,-0.38 1.8,-1.35 2.18,-2.17 0.63,-1.17 0.6,0.07 0.6,-16.76 0,-16.72 0.03,-15.55 -0.56,-16.72 -0.35,-0.78 -1.48,-1.88 -2.26,-2.27 -1.17,-0.57 -0.08,-0.53 -15.97,-0.53 -7.92,0 -14.8,0 -15.3,0.04 z m 30.06,1.4 c 1.14,0.36 2.08,1.26 2.5,2.4 l 0.2,0.46 v 30.49 l -0.2,0.47 c -0.42,1.06 -1.32,1.95 -2.37,2.34 -0.43,0.12 -1.14,0.12 -15.66,0.12 h -15.18 l -0.52,-0.2 c -1.13,-0.43 -2,-1.37 -2.34,-2.5 -0.16,-0.55 -0.16,-0.78 -0.16,-15.43 0,-16.28 -0.04,-15.35 0.47,-16.32 0.3,-0.55 0.97,-1.2 1.52,-1.5 0.94,-0.5 0,-0.5 16.24,-0.5 14.73,0 14.96,0 15.5,0.16 z" class="s-y_bCXRrkrYfP"></path><path style="fill: rgb(237, 116, 2); stroke: rgb(237, 116, 2); stroke-width: 0.01px;" d="m 420.85286,395.1483 c -2.14,0.2 -4.56,0.98 -6.4,2.1 -5.97,3.68 -8.63,10.87 -6.4,17.47 1.52,4.6 5.3,8.28 9.95,9.6 2.66,0.8 5.7,0.8 8.36,0 1.63,-0.46 3.35,-1.32 4.8,-2.38 0.77,-0.62 2.33,-2.18 2.92,-2.96 1.48,-1.96 2.38,-4.1 2.8,-6.53 0.24,-1.36 0.24,-3.55 0,-4.88 -0.42,-2.46 -1.32,-4.57 -2.8,-6.52 -0.6,-0.82 -2.15,-2.34 -2.93,-2.97 -3.02,-2.22 -6.7,-3.24 -10.32,-2.93 z m 4,1.92 c 4.55,0.97 8.34,4.33 9.82,8.67 0.5,1.6 0.63,2.34 0.63,4.14 0.04,1.87 -0.12,2.7 -0.63,4.25 -1.3,4.03 -4.53,7.23 -8.55,8.44 -1.52,0.47 -2.18,0.58 -4.02,0.54 -1.83,0 -2.57,-0.1 -4.17,-0.6 -3.8,-1.3 -6.87,-4.34 -8.2,-8.17 -0.55,-1.6 -0.67,-2.35 -0.67,-4.34 0,-1.45 0.03,-1.84 0.2,-2.58 0.85,-3.95 3.3,-7.23 6.82,-9.1 1.37,-0.7 2.9,-1.2 4.4,-1.4 0.95,-0.13 3.4,-0.05 4.35,0.15 z" class="s-y_bCXRrkrYfP"></path><path style="fill: rgb(237, 116, 2); stroke: rgb(237, 116, 2); stroke-width: 0.01px;" d="m 421.69408,401.3983 c -0.7,0.16 -1.3,0.74 -1.48,1.45 -0.2,0.54 -0.2,0.58 0,1.17 0.43,1.52 2.38,1.95 3.47,0.78 0.6,-0.66 0.7,-1.6 0.32,-2.38 -0.16,-0.28 -0.63,-0.7 -0.94,-0.9 -0.34,-0.16 -1,-0.24 -1.36,-0.12 z m -6.67,6.17 c -1.17,0.4 -1.84,1.3 -1.84,2.42 0,2.22 2.7,3.35 4.3,1.75 0.46,-0.47 0.66,-0.98 0.66,-1.76 0,-1.02 -0.52,-1.84 -1.42,-2.27 -0.46,-0.24 -1.24,-0.28 -1.7,-0.16 z m 1.32,0.9 c 0.15,0 0.7,0.55 0.8,0.82 0.2,0.34 0.17,1.12 -0.02,1.47 -0.08,0.16 -0.32,0.4 -0.47,0.5 -0.58,0.52 -1.7,0.4 -2.18,-0.14 -0.55,-0.63 -0.55,-1.6 0,-2.27 0.3,-0.35 1.02,-0.55 1.52,-0.43 0.16,0.04 0.32,0.04 0.35,0.04 z m 11.64,-0.9 c -1.84,0.5 -2.42,2.85 -1.1,4.18 0.98,1.02 2.58,1.02 3.56,0 0.96,-0.98 0.92,-2.54 0,-3.5 -0.68,-0.64 -1.65,-0.9 -2.47,-0.68 z m 1.48,1.02 c 0.52,0.26 0.83,0.77 0.83,1.4 0,0.93 -0.66,1.6 -1.6,1.6 -0.55,0 -0.94,-0.12 -1.25,-0.5 -1.2,-1.42 0.4,-3.37 2.03,-2.5 z" class="s-y_bCXRrkrYfP"></path><text style="font-style: normal; font-weight: normal; font-size: 16px; line-height: 1; font-family: sans-serif; letter-spacing: 0px; word-spacing: 0px; fill: rgb(0, 0, 0); fill-opacity: 1; stroke: none;" x="422.91583" y="96.798111" class="s-y_bCXRrkrYfP"><tspan id="heater" x="424.91583" y="96.798111" style="text-align: center; text-anchor: middle;" class="s-y_bCXRrkrYfP">0</tspan> <tspan x="422.91583" y="112.79811" style="text-align: center; text-anchor: middle;" class="s-y_bCXRrkrYfP">Watt</tspan> </text><text style="font-style: normal; font-weight: normal; font-size: 16px; line-height: 1; font-family: sans-serif; letter-spacing: 0px; word-spacing: 0px; fill: rgb(0, 0, 0); fill-opacity: 1; stroke: none;" x="75.935829" y="168.60825" class="s-y_bCXRrkrYfP"><tspan id="grid" x="77.935829" y="168.60825" style="text-align: center; text-anchor: middle;" class="s-y_bCXRrkrYfP">2846</tspan> <tspan x="75.935829" y="184.60825" style="text-align: center; text-anchor: middle;" class="s-y_bCXRrkrYfP">Watt</tspan> </text><text style="font-style: normal; font-weight: normal; font-size: 16px; line-height: 1; font-family: sans-serif; letter-spacing: 0px; word-spacing: 0px; fill: rgb(0, 0, 0); fill-opacity: 1; stroke: none;" x="489.33582" y="208.15755" class="s-y_bCXRrkrYfP"><tspan id="boiler" x="492.33582" y="208.15755" style="text-align: center; text-anchor: middle;" class="s-y_bCXRrkrYfP">2070</tspan> <tspan x="489.33582" y="224.15755" style="text-align: center; text-anchor: middle;" class="s-y_bCXRrkrYfP">Watt</tspan> </text><text style="font-style: normal; font-weight: normal; font-size: 16px; line-height: 1; font-family: sans-serif; letter-spacing: 0px; word-spacing: 0px; fill: rgb(0, 0, 0); fill-opacity: 1; stroke: none;" x="422.11581" y="448.70776" class="s-y_bCXRrkrYfP"><tspan id="other" x="424.11581" y="448.70776" style="text-align: center; text-anchor: middle;" class="s-y_bCXRrkrYfP">2549</tspan> <tspan x="422.11581" y="464.70776" style="text-align: center; text-anchor: middle;" class="s-y_bCXRrkrYfP">Watt</tspan> </text><text style="font-style: normal; font-weight: normal; font-size: 16px; line-height: 1; font-family: sans-serif; letter-spacing: 0px; word-spacing: 0px; fill: rgb(0, 0, 0); fill-opacity: 1; stroke: none;" x="489.33582" y="337.17258" class="s-y_bCXRrkrYfP"><tspan id="car" x="492.33582" y="337.17258" style="text-align: center; text-anchor: middle;" class="s-y_bCXRrkrYfP">0</tspan> <tspan x="489.33582" y="353.17258" style="text-align: center; text-anchor: middle;" class="s-y_bCXRrkrYfP">Watt</tspan> </text><text style="font-style: normal; font-weight: normal; font-size: 21.3333px; line-height: 1; font-family: sans-serif; letter-spacing: 0px; word-spacing: 0px; fill: rgb(0, 0, 0); fill-opacity: 1; stroke: none;" x="277.8262" y="277.25613" class="s-y_bCXRrkrYfP"><tspan id="home" x="279.8262" y="277.25613" style="text-align: center; text-anchor: middle;" class="s-y_bCXRrkrYfP">4619</tspan> <tspan x="277.8262" y="298.58948" style="text-align: center; text-anchor: middle;" class="s-y_bCXRrkrYfP">Watt</tspan> </text><text style="font-style: normal; font-weight: normal; font-size: 16px; line-height: 1; font-family: sans-serif; letter-spacing: 0px; word-spacing: 0px; fill: rgb(0, 0, 0); fill-opacity: 1; stroke: none;" x="76.085365" y="375.09183" class="s-y_bCXRrkrYfP"><tspan id="production" x="78.085365" y="375.09183" style="text-align: center; text-anchor: middle;" class="s-y_bCXRrkrYfP">1773</tspan> <tspan x="76.085365" y="391.09183" style="text-align: center; text-anchor: middle;" class="s-y_bCXRrkrYfP">Watt</tspan> </text><text style="font-style: normal; font-weight: normal; font-size: 12px; line-height: 1; font-family: sans-serif; letter-spacing: 0px; word-spacing: 0px; fill: rgb(0, 0, 0); fill-opacity: 1; stroke: none;" x="109.71843" y="326.29419" class="s-y_bCXRrkrYfP"><tspan id="inverters" x="109.71843" y="326.29419" style="font-size: 12px; text-align: center; text-anchor: middle;" class="s-y_bCXRrkrYfP">6</tspan></text></svg>