<?xml version="1.0" ?><svg style="enable-background:new 0 0 512 512;" version="1.1" viewBox="0 0 512 512" xml:space="preserve" xmlns="http://www.w3.org/2000/svg" xmlns:xlink="http://www.w3.org/1999/xlink"><style type="text/css">
	.st0{fill:#ffffff;}
</style><g id="Layer_1"/><g id="Layer_2"><g><path class="st0" d="M27.5,391.98c0,28.39,23.1,51.49,51.49,51.49h24.71v25.03c0,8.84,7.16,16,16,16s16-7.16,16-16v-25.03h24.7    c13.74,0,26.67-5.35,36.42-15.09c9.72-9.73,15.07-22.66,15.07-36.4c0-28.39-23.1-51.49-51.49-51.49h-24.7V43.5    c0-8.84-7.16-16-16-16s-16,7.16-16,16v296.99H78.99c-13.75,0-26.68,5.35-36.4,15.08C32.86,365.29,27.5,378.23,27.5,391.98z     M65.21,378.19c3.68-3.68,8.57-5.7,13.78-5.7h81.41c10.75,0,19.49,8.74,19.49,19.49c0,5.21-2.03,10.1-5.7,13.78    c-3.69,3.68-8.59,5.71-13.79,5.71H78.99c-10.75,0-19.49-8.74-19.49-19.49C59.5,386.77,61.53,381.88,65.21,378.19z"/><path class="st0" d="M348.2,148.4c0-28.39-23.1-51.49-51.49-51.49H272V43.5c0-8.84-7.16-16-16-16s-16,7.16-16,16v53.41h-24.71    c-13.75,0-26.68,5.35-36.4,15.08c-9.73,9.73-15.09,22.66-15.09,36.41c0,28.39,23.1,51.49,51.49,51.49H240V468.5    c0,8.84,7.16,16,16,16s16-7.16,16-16V199.89h24.71c13.75,0,26.68-5.35,36.4-15.08C342.84,175.09,348.2,162.15,348.2,148.4z     M310.49,162.19c-3.68,3.68-8.57,5.7-13.78,5.7h-81.42c-10.75,0-19.49-8.74-19.49-19.49c0-5.21,2.03-10.1,5.71-13.79    c3.68-3.68,8.57-5.7,13.78-5.7h81.42c10.75,0,19.49,8.74,19.49,19.49C316.2,153.61,314.17,158.5,310.49,162.19z"/><path class="st0" d="M433.01,340.49H408.3V43.5c0-8.84-7.16-16-16-16s-16,7.16-16,16v296.99h-24.7    c-13.75,0-26.67,5.35-36.42,15.08c-9.72,9.73-15.07,22.66-15.07,36.4c0,28.39,23.1,51.49,51.49,51.49h24.7v25.03    c0,8.84,7.16,16,16,16s16-7.16,16-16v-25.03h24.71c13.75,0,26.68-5.35,36.4-15.08c9.73-9.73,15.09-22.66,15.09-36.41    C484.5,363.59,461.4,340.49,433.01,340.49z M446.79,405.77c-3.68,3.68-8.57,5.7-13.78,5.7H351.6c-10.75,0-19.49-8.74-19.49-19.49    c0-5.21,2.03-10.1,5.7-13.78c3.69-3.68,8.59-5.71,13.79-5.71h81.41c10.75,0,19.49,8.74,19.49,19.49    C452.5,397.19,450.47,402.08,446.79,405.77z"/></g></g></svg>